<?xml version="1.0" ?><!DOCTYPE svg  PUBLIC '-//W3C//DTD SVG 1.1//EN'  'http://www.w3.org/Graphics/SVG/1.1/DTD/svg11.dtd'><svg enable-background="new 0 0 512 512" height="512px" id="Layer_1" version="1.1" viewBox="0 0 512 512" width="512px" xml:space="preserve" xmlns="http://www.w3.org/2000/svg" xmlns:xlink="http://www.w3.org/1999/xlink"><g><g><g><polyline fill="#1E1A18" opacity="0.502" points="201.505,400.312 201.505,413.983 321.293,413.999 321.295,400.325       201.505,400.312     "/><path d="M339.645,379.333c-0.003,0-0.006,0-0.009,0c-10.483,0-18.981-8.504-18.981-18.985      c0-10.486,8.501-18.99,18.99-18.99c10.489,0.006,18.99,8.504,18.99,18.996C358.629,370.829,350.136,379.333,339.645,379.333       M181.462,379.319c-10.489-0.011-18.99-8.512-18.987-18.993c0-10.489,8.503-18.984,18.993-18.984      c10.486,0,18.977,8.506,18.977,18.987C200.445,370.815,191.952,379.314,181.462,379.319 M184.336,183.053l-0.003,19.204      l-50.398-0.008l-0.03,193.41l254.182,0.03l0.026-193.407l-50.4-0.005l-0.003-19.202L184.336,183.053" fill="#1E1A18" opacity="0.502"/><path d="M112.01,335.743c-0.009,0-0.017,0.001-0.026,0.003      c-17.583,3.672-30.802,19.261-30.799,37.933c-0.005,18.449,12.87,33.868,30.123,37.796c0.011,0.003,0.022,0.004,0.034,0.004      c0.763,0,1.355-5.977,1.747-14.576c0.098-2.234,15.779-7.164,15.779-7.164l0.214-34.353c0,0-15.638-5.711-15.741-8.176      C113.078,340.317,112.638,335.743,112.01,335.743" fill="#1E1A18" opacity="0.502"/><path d="M410.632,332.69c-0.772,0.001-1.358,5.98-1.753,14.579      c-0.105,2.234-15.773,7.161-15.773,7.161l-0.214,34.353c0,0,15.627,5.715,15.73,8.179c0.271,6.89,0.709,11.453,1.328,11.453      c0.009,0,0.019-0.001,0.027-0.003c17.591-3.66,30.805-19.247,30.808-37.921c0.005-18.438-12.873-33.868-30.118-37.797      C410.655,332.691,410.644,332.69,410.632,332.69" fill="#1E1A18" opacity="0.502"/><path d="M254.245,33.565c-7.506,0-13.588,6.085-13.588,13.587      c-0.002,7.513,6.08,13.606,13.586,13.606c0.003,0,0.006,0,0.01,0c0.019,0,0.039,0,0.058,0c0.215,0,0.423-0.026,0.632-0.036      c2.613,2.126,4.288,4.867,4.788,8.043c1.028,6.615-2.916,14.478-10.562,21.036c-7.118,6.082-10.563,13.055-10.268,20.714      c0.265,6.997,3.758,13.149,7.435,17.765c-21.466,2.275-52.677,9.41-55.734,23.471c-0.173,0.788,12.061,1.331,20.787,1.648      c2.243,0.076,1.193,23.446,1.193,23.446l96.384-0.125c0,0-0.725-23.444,1.743-23.56c6.99-0.341,17.78-0.85,17.65-1.477      c-3.75-17.088-48.14-24.025-67.725-24.215c-2.673-2.235-10.584-9.464-10.882-17.37c-0.17-4.234,1.951-8.173,6.477-12.056      c10.681-9.155,15.871-20.435,14.223-30.954c-0.69-4.38-2.563-8.344-5.419-11.664c1.764-2.287,2.818-5.157,2.818-8.263      c0.003-7.505-6.076-13.598-13.598-13.598C254.251,33.565,254.249,33.565,254.245,33.565" fill="#1E1A18" opacity="0.502"/></g><path d="M108.746,341.363c0.097,2.454,15.689,8.151,15.689,8.151l-0.216,34.269c0,0-15.63,4.925-15.728,7.146     c-0.397,8.693-1.004,14.708-1.78,14.526c-17.207-3.912-30.042-19.302-30.037-37.686c-0.003-18.628,13.179-34.174,30.71-37.832     C108.018,329.8,108.473,334.394,108.746,341.363z" fill="#999999"/><g><path d="M403.222,390.983c-0.092-2.463-15.682-8.157-15.682-8.157l0.206-34.264c0,0,15.627-4.921,15.735-7.146      c0.397-8.695,0.998-14.707,1.785-14.531c17.199,3.912,30.031,19.307,30.026,37.688c0,18.633-13.176,34.171-30.708,37.834      C403.941,402.538,403.497,397.95,403.222,390.983z" fill="#999999"/><path d="M255.638,122.218c-2.676-2.232-10.555-9.44-10.866-17.324c-0.157-4.221,1.954-8.155,6.475-12.034      c10.654-9.118,15.816-20.376,14.188-30.857c-0.688-4.375-2.56-8.328-5.409-11.637c1.756-2.286,2.814-5.135,2.816-8.241      c-0.002-7.492-6.076-13.56-13.568-13.568c-7.486,0-13.563,6.074-13.56,13.566c0,7.494,6.071,13.56,13.563,13.557      c0.232,0.006,0.462-0.016,0.692-0.032c2.6,2.121,4.264,4.854,4.762,8.03c1.028,6.59-2.911,14.431-10.535,20.976      c-7.083,6.063-10.535,13.019-10.243,20.657c0.273,6.972,3.755,13.111,7.421,17.719c-21.409,2.268-52.536,9.375-55.585,23.398      c-0.173,0.787,12.034,1.333,20.735,1.634c2.224,0.089,1.188,23.412,1.188,23.412l96.122-0.138c0,0-0.717-23.374,1.745-23.498      c6.961-0.346,17.727-0.844,17.594-1.477C319.444,129.323,275.163,122.399,255.638,122.218z" fill="#999999"/></g><g><path d="M334.146,176.901l0.003,18.921l50.547,0.011l-0.006,39.034l8.032,0.001v0.382h0.177l0.002-58.343      L334.146,176.901 M129.277,176.876l-0.013,57.961h0.49l0.006-39.031h50.542l0.011-18.924L129.277,176.876" opacity="0"/><path d="M336.086,335.7c-9.281,0-17.006,6.656-18.697,15.468l37.396,0.004c-1.688-8.81-9.416-15.467-18.693-15.472      C336.09,335.7,336.088,335.7,336.086,335.7 M177.437,335.679c-9.289,0-17.024,6.653-18.709,15.472l37.405,0.004      C194.448,342.342,186.716,335.684,177.437,335.679 M384.69,234.868l-0.018,116.307l8.034,0.001l0.016-115.925v-0.382      L384.69,234.868 M129.09,234.838l-0.018,116.675l0-0.365h0.663l0.018-116.31h-0.49H129.09" opacity="0"/><path d="M317.389,351.168c-0.226,1.177-0.344,2.391-0.344,3.634c-0.006,10.548,8.513,19.099,19.038,19.099      c0.002,0,0.005,0,0.006,0c0.005,0,0.01,0,0.015,0c10.504,0,19.024-8.549,19.024-19.102c0-1.24-0.117-2.453-0.343-3.627      L317.389,351.168 M158.728,351.15c-0.224,1.174-0.341,2.385-0.34,3.624c0,10.552,8.525,19.104,19.044,19.106      c0.002,0,0.003,0,0.005,0c10.519,0,19.036-8.546,19.036-19.099c0.001-1.241-0.116-2.453-0.341-3.628L158.728,351.15       M317.684,408.767l-120.155-0.017l0.002-13.757l120.153,0.016V408.767 M129.073,351.147v0.365l-0.004,57.972l263.629,0.034      l0.01-58.343l-8.034-0.001l-0.006,39.167l-254.937-0.041l0.006-39.153H129.073" opacity="0"/><g><defs><polyline id="SVGID_1_" points="129.73,176.489 384.696,176.489 384.696,408.767 129.73,408.767 129.73,176.489       "/></defs><clipPath id="SVGID_2_"><use overflow="visible" xlink:href="#SVGID_1_"/></clipPath><polyline clip-path="url(#SVGID_2_)" fill="#C70D00" points="197.531,394.993 197.528,408.75 317.684,408.767 317.684,395.009        197.531,394.993      "/><polyline clip-path="url(#SVGID_2_)" fill="#C70D00" points="180.313,176.883 180.302,195.807 129.76,195.807 129.754,234.838        384.69,234.868 384.696,195.834 334.149,195.823 334.146,176.901 180.313,176.883      "/><path clip-path="url(#SVGID_2_)" d="M129.754,234.838l-0.018,116.31l28.992,0.003       c1.685-8.818,9.42-15.472,18.709-15.472c9.279,0.005,17.011,6.663,18.695,15.476l121.256,0.014       c1.691-8.812,9.416-15.468,18.697-15.468c0.002,0,0.004,0,0.006,0c9.277,0.005,17.006,6.662,18.693,15.472l29.888,0.003       l0.018-116.307L129.754,234.838" fill="#FFC01F"/><path clip-path="url(#SVGID_2_)" d="M129.736,351.147l-0.006,39.153l254.937,0.041l0.006-39.167l-29.888-0.003       c0.226,1.174,0.343,2.387,0.343,3.627c0,10.553-8.521,19.102-19.024,19.102c-0.005,0-0.01,0-0.015,0c-0.001,0-0.004,0-0.006,0       c-10.525,0-19.044-8.551-19.038-19.099c0-1.243,0.118-2.457,0.344-3.634l-121.256-0.014c0.225,1.175,0.342,2.387,0.341,3.628       c0,10.553-8.518,19.099-19.036,19.099c-0.002,0-0.003,0-0.005,0c-10.52-0.002-19.044-8.555-19.044-19.106       c0-1.239,0.116-2.45,0.34-3.624L129.736,351.147" fill="#C70D00"/></g></g><g><path d="M108.768,390.813c0.095-2.468,15.452-7.029,15.452-7.029l0.216-34.269      c0,0-15.803-6.233-15.914-8.466c-0.395-8.735-0.341-11.287-1.136-11.111c-17.27,3.929-30.805,19.223-30.805,37.681      c-0.005,18.709,12.524,34.168,30.131,37.837C107.339,405.593,108.489,397.81,108.768,390.813z" fill="#FFFFFF" opacity="0.3"/><path d="M256.56,122.313c-0.325-0.003-0.633-0.011-0.936-0.011      c-2.689-2.232-10.584-9.454-10.887-17.343c-0.162-4.231,1.959-8.171,6.472-12.045c2.007-1.721,3.842-3.52,5.446-5.375      c-0.086-24.025-0.081-45.968-0.063-56.857c-2.118-1.355-4.643-2.159-7.354-2.159c-7.494,0.005-13.571,6.08-13.574,13.582      c0,7.494,6.069,13.576,13.571,13.579c0.235,0.003,0.468-0.019,0.695-0.033c2.613,2.119,4.286,4.862,4.772,8.033      c1.034,6.599-2.909,14.461-10.552,20.995c-7.091,6.079-10.546,13.046-10.246,20.692c0.26,6.978,3.755,13.133,7.429,17.749      c-21.436,2.267-52.612,9.383-55.666,23.43c-0.165,0.787,12.056,1.326,20.765,1.64c2.235,0.081,1.19,23.425,1.19,23.425      l48.74-0.065C256.365,171.549,256.563,144.645,256.56,122.313z" fill="#FFFFFF" opacity="0.3"/><path d="M178.086,373.786c-10.462-0.002-18.941-8.481-18.941-18.952      c-0.002-10.454,8.479-18.926,18.944-18.926c0,0,0.003,0,0.003,0c10.454,0,18.927,8.48,18.93,18.937      C197.022,365.313,188.538,373.784,178.086,373.786 M180.143,176.846l-0.084,19.326l-50.271-0.008l-0.024,193.915l126.762,0.021      l0.116-213.244L180.143,176.846" fill="#FFFFFF" opacity="0.302"/></g><rect fill="#FFFFFF" height="13.695" opacity="0.3" transform="matrix(-1 -1.322349e-004 1.322349e-004 -1 453.9293 803.0378)" width="59.056" x="197.463" y="394.656"/></g></g></svg>